<?xml version="1.0" encoding="UTF-8" standalone="no"?>
<svg xmlns:svg="http://www.w3.org/2000/svg" xmlns="http://www.w3.org/2000/svg" version="1.0" width="800" height="800" viewBox="0 0 462 462" > 
<path d="M 218.97266,456.87891 L 242.30469,456.87491 M 247.42969,456.55078 L 270.57031,453.625 M 275.61719,452.66015 L 298.20703,446.85938 M 303.09766,445.26953 L 324.78906,436.6875 M 329.44531,434.49219 L 349.875,423.26953 M 354.22266,420.50781 L 373.08594,406.79688 M 377.05468,403.51172 L 394.04297,387.55859 M 397.56641,383.80078 L 412.42968,365.83594 M 415.45703,361.67578 L 427.95312,341.98047 M 430.42968,337.48047 L 440.37109,316.37109 M 442.26172,311.59765 L 449.46485,289.41015 M 450.74218,284.43359 L 455.10938,261.51562 M 455.75,256.42188 L 457.21485,233.14453 M 457.21485,228.01172 L 455.7539,204.72656 M 455.10938,199.63281 L 450.74609,176.71094 M 449.46875,171.73828 L 442.2539,149.55469 M 440.35938,144.78125 L 430.42578,123.66797 M 427.94922,119.16797 L 415.45703,99.476565 M 412.42968,95.3125 L 397.57031,77.347655 M 394.04297,73.59375 L 377.04297,57.621095 M 373.08203,54.347655 L 354.21875,40.64453 M 349.8711,37.88672 L 329.42578,26.652345 M 324.77734,24.464845 L 303.09766,15.878905 M 298.20703,14.29297 L 275.61719,8.48828 M 270.57031,7.52344 L 247.42578,4.59375 M 242.30469,4.27344 L 218.97266,4.27744 M 213.84766,4.601565 L 190.70703,7.527345 M 185.66016,8.49219 L 163.06641,14.29297 M 158.17969,15.882815 L 136.48828,24.464845 M 131.83203,26.65625 L 111.40234,37.882815 M 107.05469,40.64453 L 88.191405,54.35547 M 84.21875,57.640625 L 67.234375,73.59375 M 63.70703,77.351565 L 48.84375,95.3125 M 45.820315,99.476565 L 33.32422,119.17187 M 30.847655,123.67187 L 20.90625,144.78125 M 19.015625,149.55469 L 11.8125,171.74219 M 10.535155,176.71875 L 6.16797,199.63672 M 5.52344,204.73047 L 4.058595,228.00781 M 4.058595,233.14062 L 5.52344,256.42578 M 6.16797,261.51953 L 10.53125,284.4414 M 11.808595,289.41406 L 19.02344,311.59765 M 20.914065,316.37109 L 30.851565,337.48438 M 33.32422,341.98438 L 45.820315,361.67578 M 48.847655,365.83984 L 63.70703,383.80469 M 67.23047,387.55859 L 84.23047,403.53125 M 88.191405,406.80469 L 107.05859,420.50391 M 111.40625,423.26562 L 131.84766,434.5 M 136.4961,436.6875 L 158.17969,445.27344 M 163.06641,446.85938 L 185.66016,452.66406 M 190.70703,453.62891 L 213.84766,456.55859 M 217.64453,454.62109 L 412.83203,99.5625 M 439.69922,312.16406 L 162.33984,16.816405 M 372.84375,56.95703 L 6.226565,229.48047 M 109.46094,41.67969 L 160.25,443.66797 M 13.535155,287.44922 L 411.55078,363.36719 M 216.07812,454.32812 L 160.89453,17.484375 M 438.94141,313.5625 L 6.42578,231.05859 M 373.92578,58.125 L 161.81641,443.95703 M 110.90625,41.007815 L 412.30859,361.96484 M 13.339845,285.87109 L 411.75,98.39453 M 215.60547,454.43359 L 86.89844,58.320315 M 438.89453,314.04688 L 22.390625,314.04688 M 374.375,58.308595 L 245.67188,454.42578 M 111.22656,40.640625 L 448.17188,285.44531 M 13.097655,285.44922 L 350.04688,40.64453 M 214.14062,455.63672 L 49.464845,365.09765 M 439.58594,315.8125 L 302.58594,444.45312 M 376.26562,58.1875 L 456.28125,228.25 M 111.69141,38.80469 L 298.14844,15.253905 M 11.49219,284.4414 L 46.71875,99.828125 M 213.95312,456.08594 L 111.59375,422.8164 M 439.94922,316.13281 L 376.6875,403.19531 M 376.6875,57.94922 L 439.94141,145.01953 M 111.58984,38.33203 L 213.95312,5.07422 M 11.01172,284.39453 L 11.01572,176.76172 M 245.67188,454.42578 L 374.375,58.308595 M 448.17188,285.44531 L 111.22656,40.640625 M 350.04688,40.64453 L 13.097655,285.44922 M 86.89844,58.320315 L 215.60547,454.43359 M 22.390625,314.04688 L 438.89453,314.04688 M 247.32422,456.07812 L 349.6875,422.82031 M 450.26172,284.39062 L 450.26572,176.75781 M 349.6836,38.33594 L 247.32422,5.066405 M 84.58594,57.95703 L 21.32422,145.01953 M 21.33594,316.13281 L 84.589845,403.20312 M 247.05078,455.49219 L 427.16016,341.1875 M 449.62109,284.46484 L 396.56641,77.85547 M 349.56641,38.96875 L 136.66016,25.57422 M 85.15625,58.265625 L 6.632815,256.59766 M 21.808595,315.6914 L 186.16406,451.66015 M 245.19922,454.32031 L 300.37891,17.484375 M 447.93359,285.86719 L 49.527345,98.39844 M 350.36328,41.01172 L 48.96875,361.96875 M 87.347655,58.132815 L 299.45703,443.95703 M 22.34375,313.5625 L 454.85156,231.05859 M 243.63281,454.60938 L 48.441405,99.566405 M 447.73438,287.4414 L 49.726565,363.37109 M 351.8086,41.683595 L 301.02344,443.66797 M 88.42969,56.964845 L 455.05078,229.48047 M 21.58594,312.16406 L 298.9336,16.8125 M 271.35547,451.41797 L 12.785155,176.07422 M 453.26562,260.08594 L 111.47266,420.92578 M 327.49609,27.964845 L 374.85156,402.73047 M 67.878905,75.84375 L 438.92968,146.625 M 33.1875,337.54688 L 215.15625,6.539065 M 272.80078,450.75 L 216.72266,6.83203 M 453.06641,258.50781 L 13.54297,174.67188 M 325.92969,27.67578 L 110.38672,419.75781 M 67.121095,77.246095 L 373.40625,403.39844 M 34.26953,338.71484 L 439.1289,148.20312 M 275.38281,452.05859 L 393.66016,387.03125 M 455.10938,256.46484 L 429.8125,123.86719 M 324.6211,25.089845 L 190.70703,8.171875 M 64.257815,77.691405 L 6.78125,199.83594 M 33.828125,341.57812 L 132.21875,433.97265 M 274.50391,451.125 L 448.88281,176.35938 M 453.94531,257 L 246.51953,6.257815 M 324.77734,26.359375 L 22.203125,146.16015 M 65.51172,77.92969 L 85.945315,402.72265 M 34.4375,340.44922 L 349.64062,421.38672 M 270.62891,452.66015 L 88.601565,405.92969 M 454.21094,261.16406 L 353.51562,419.85156 M 328.82031,27.402345 L 448.62109,172.19922 M 67.746095,74.414065 L 242.48047,5.21875 M 31.78125,337.24219 L 19.972655,149.67188 M 302.58594,444.45312 L 439.58594,315.8125 M 456.28125,228.25 L 376.26562,58.1875 M 298.14844,15.253905 L 111.69141,38.80469 M 46.71875,99.828125 L 11.49219,284.4414 M 49.464845,365.09765 L 214.14062,455.63672 M 299.45703,443.95703 L 87.347655,58.132815 M 454.85156,231.05859 L 22.34375,313.5625 M 300.37891,17.484375 L 245.19922,454.32031 M 49.527345,98.39844 L 447.93359,285.86719 M 48.96875,361.96875 L 350.36328,41.01172 M 301.02344,443.66797 L 351.8086,41.683595 M 455.05078,229.48047 L 88.42969,56.964845 M 298.9336,16.8125 L 21.58594,312.16406 M 48.441405,99.566405 L 243.63281,454.60938 M 49.726565,363.37109 L 447.73438,287.4414 M 301.65235,443.82422 L 428.38281,123.73828 M 455.39062,228.93359 L 190.14062,9.496095 M 298.52734,16.3125 L 7.859375,200.78125 M 47.839845,99.796875 L 133.46094,433.24609 M 49.765625,364.01172 L 393.35547,385.62891 M 298.13672,446.05859 L 136.66797,435.90235 M 456.42968,232.97266 L 396.87109,383.39453 M 302.69141,16.57422 L 427.34375,119.69531 M 49.375,95.921875 L 185.97656,9.23047 M 46.558595,361.35938 L 6.32422,204.65625 M 329.17188,434.09375 L 412.08984,365.49219 M 454.64453,199.76172 L 415.02344,99.695315 M 270.55469,8.007815 L 163.14062,14.76953 M 31.30078,123.83984 L 4.539065,228.08203 M 67.52344,387.17188 L 158.39844,444.83984 M 325.09766,434.22265 L 7.77344,203.67969 M 453.5039,203.67578 L 136.1875,434.22265 M 273.91797,10.296875 L 395.1289,383.33984 M 34.51172,121.34375 L 426.76172,121.33975 M 66.14453,383.34375 L 187.35938,10.30078 M 326.38672,433.28906 L 188.94922,10.30078 M 453.01953,202.15625 L 8.257815,202.16406 M 272.32812,10.296875 L 134.89844,433.28906 M 34.027345,122.86328 L 393.83594,384.27344 M 67.4375,384.27344 L 427.24609,122.85938 M 327.66406,433.21094 L 395.44531,77.88672 M 453.32812,200.91406 L 136.35547,26.65625 M 271.23828,9.61328 L 7.566405,257.22656 M 33.035155,123.67187 L 187.05859,450.97656 M 67.902345,385.46875 L 426.78125,340.1289 M 324.62891,436.05859 L 190.70703,452.98438 M 455.10938,204.68359 L 429.81641,337.28125 M 275.38281,9.089845 L 393.66406,74.11719 M 33.82422,119.57812 L 132.21094,27.183595 M 64.253905,383.46484 L 6.78125,261.32031 M 349.64062,421.38672 L 34.4375,340.44922 M 448.88281,176.35938 L 274.50391,451.125 M 246.51953,6.257815 L 453.94531,257 M 22.203125,146.16015 L 324.77734,26.359375 M 85.945315,402.72265 L 65.51172,77.92969 M 353.51562,419.85156 L 454.21094,261.16406 M 448.62109,172.19922 L 328.82031,27.402345 M 242.48047,5.21875 L 67.746095,74.414065 M 19.972655,149.67188 L 31.78125,337.24219 M 88.601565,405.92969 L 270.62891,452.66015 M 350.89062,419.76562 L 135.33594,27.67578 M 447.73828,174.66797 L 8.21094,258.51172 M 244.55078,6.82422 L 188.47656,450.75391 M 22.13672,148.20312 L 427.00781,338.71094 M 87.875,403.40625 L 394.16016,77.24219 M 349.8086,420.92969 L 8.01172,260.08984 M 448.49609,176.07031 L 189.92188,451.42188 M 246.11719,6.53125 L 428.08984,337.54297 M 22.33594,146.625 L 393.40234,75.84375 M 86.42969,402.73828 L 133.76953,27.964845 M 349.6875,422.82031 L 247.32422,456.07812 M 450.26562,176.75781 L 450.26162,284.39062 M 247.32422,5.066405 L 349.6836,38.33594 M 21.32422,145.01953 L 84.58594,57.95703 M 84.589845,403.20312 L 21.33594,316.13281 M 376.6875,403.19531 L 439.94922,316.13281 M 439.94141,145.01953 L 376.6875,57.94922 M 213.95312,5.07422 L 111.58984,38.33203 M 11.015625,176.76172 L 11.011625,284.39453 M 111.59375,422.8164 L 213.95312,456.08594 M 372.64844,405.76172 L 163.10156,445.73828 M 441.13281,149.66015 L 414.39844,361.29688 M 218.72656,5.375 L 411.75,96.203125 M 12.785155,172.30859 L 158.80469,16.816405 M 107.89844,419.75781 L 5.140625,232.83594 M 375.49609,402.73047 L 413.7539,99.851565 M 439.1289,146.01172 L 162.90234,16.027345 M 214.63281,6.160155 L 5.66797,228.69141 M 12.257815,176.45312 L 159.32813,443.95703 M 111.66797,421.53906 L 411.55078,364.33203 M 374.85156,402.73047 L 327.49609,27.964845 M 438.92968,146.625 L 67.878905,75.84375 M 215.15625,6.539065 L 33.1875,337.54688 M 12.785155,176.07422 L 271.35547,451.41797 M 111.47266,420.92578 L 453.26562,260.08594 M 373.40625,403.39844 L 67.121095,77.246095 M 439.1289,148.20312 L 34.26953,338.71484 M 216.72266,6.83203 L 272.80078,450.75 M 13.54297,174.67188 L 453.06641,258.50781 M 110.38672,419.75781 L 325.92969,27.67578 M 393.66016,387.03125 L 275.38281,452.05859 M 429.8125,123.86719 L 455.10938,256.46484 M 190.70703,8.171875 L 324.6211,25.089845 M 6.78125,199.83594 L 64.257815,77.691405 M 132.21875,433.97265 L 33.828125,341.57812 M 393.35547,385.62891 L 49.765625,364.01562 M 428.38281,123.73828 L 301.65235,443.82422 M 190.14062,9.496095 L 455.39062,228.93359 M 7.859375,200.78125 L 298.52734,16.3125 M 133.46094,433.24609 L 47.839845,99.796875 M 396.87109,383.39453 L 456.42968,232.97266 M 427.34375,119.69531 L 302.69141,16.57422 M 185.97656,9.23047 L 49.375,95.921875 M 6.32422,204.65625 L 46.558595,361.35938 M 136.66797,435.90235 L 298.13672,446.05859 M 395.1289,383.33984 L 273.91797,10.296875 M 426.76172,121.33984 L 34.51172,121.34384 M 187.35938,10.30078 L 66.14453,383.34375 M 7.77344,203.67969 L 325.09766,434.22265 M 136.1875,434.22265 L 453.5039,203.67578 M 393.83594,384.27344 L 34.027345,122.86328 M 427.24609,122.85938 L 67.4375,384.27344 M 188.94922,10.30078 L 326.38672,433.28906 M 8.257815,202.16406 L 453.01953,202.15625 M 134.89844,433.28906 L 272.32812,10.296875 M 411.55078,363.36719 L 13.535155,287.44922 M 412.83203,99.5625 L 217.64453,454.62109 M 162.33984,16.816405 L 439.69922,312.16406 M 6.226565,229.48047 L 372.84375,56.95703 M 160.25,443.66797 L 109.46094,41.67969 M 412.30859,361.96484 L 110.90625,41.007815 M 411.75,98.39453 L 13.339845,285.87109 M 160.89453,17.484375 L 216.07812,454.32812 M 6.42578,231.05859 L 438.94141,313.5625 M 161.81641,443.95703 L 373.92578,58.125 M 414.39844,361.29688 L 441.13281,149.66015 M 411.75,96.203125 L 218.72656,5.375 M 158.80469,16.816405 L 12.785155,172.30859 M 5.140625,232.83594 L 107.89844,419.75781 M 163.10156,445.73828 L 372.64844,405.76172 M 411.55078,364.33203 L 111.66797,421.53906 M 413.7539,99.851565 L 375.49609,402.73047 M 162.90234,16.027345 L 439.1289,146.01172 M 5.66797,228.69141 L 214.63281,6.160155 M 159.32813,443.95703 L 12.257815,176.45312 M 412.08984,365.49219 L 329.17188,434.09375 M 415.02344,99.695315 L 454.64453,199.76172 M 163.14062,14.76953 L 270.55469,8.007815 M 4.539065,228.08203 L 31.30078,123.83984 M 158.39844,444.83984 L 67.52344,387.17188 M 427.00781,338.71094 L 22.13672,148.20312 M 394.16016,77.24219 L 87.875,403.40625 M 135.33594,27.67578 L 350.89062,419.76562 M 8.21094,258.51172 L 447.73828,174.66797 M 188.47656,450.75391 L 244.55078,6.82422 M 428.08984,337.54297 L 246.11719,6.53125 M 393.40234,75.84375 L 22.33594,146.625 M 133.76953,27.964845 L 86.42969,402.73828 M 8.01172,260.08984 L 349.8086,420.92969 M 189.92188,451.42188 L 448.49609,176.07031 M 427.16016,341.1875 L 247.05078,455.49219 M 396.56641,77.85547 L 449.62109,284.46484 M 136.66016,25.57422 L 349.56641,38.96875 M 6.632815,256.59766 L 85.15625,58.265625 M 186.16406,451.66015 L 21.808595,315.6914 M 426.78125,340.1289 L 67.902345,385.46875 M 395.44531,77.88672 L 327.66406,433.21094 M 136.35547,26.65625 L 453.32812,200.91406 M 7.566405,257.22656 L 271.23828,9.61328 M 187.05859,450.97656 L 33.035155,123.67187 M 429.81641,337.28125 L 455.10938,204.68359 M 393.66406,74.11719 L 275.38281,9.089845 M 132.21094,27.183595 L 33.82422,119.57812 M 6.78125,261.32031 L 64.253905,383.46484 M 190.70703,452.98438 L 324.62891,436.05859"  style="stroke:black;stroke-width:0.75"/>
<g transform="translate(-69.2,-55)"  style="fill:blue;stroke:black;stroke-width:1.1"> 
<circle cx="285.97266" cy="511.89062" r="3.4"/>
<circle cx="342.69531" cy="508.30859" r="3.4"/>
<circle cx="396.75781" cy="490.74609" r="3.4"/>
<circle cx="444.75" cy="460.28906" r="3.4"/>
<circle cx="483.65625" cy="418.85547" r="3.4"/>
<circle cx="511.04688" cy="369.04688" r="3.4"/>
<circle cx="525.17188" cy="313.98828" r="3.4"/>
<circle cx="525.17188" cy="257.15625" r="3.4"/>
<circle cx="511.03516" cy="202.10156" r="3.4"/>
<circle cx="483.65234" cy="152.29297" r="3.4"/>
<circle cx="444.74609" cy="110.85547" r="3.4"/>
<circle cx="396.75" cy="80.402344" r="3.4"/>
<circle cx="342.69531" cy="62.839844" r="3.4"/>
<circle cx="285.96875" cy="59.269531" r="3.4"/>
<circle cx="230.14062" cy="69.925781" r="3.4"/>
<circle cx="178.70703" cy="94.117188" r="3.4"/>
<circle cx="134.91797" cy="130.35547" r="3.4"/>
<circle cx="101.50391" cy="176.34375" r="3.4"/>
<circle cx="80.578125" cy="229.19141" r="3.4"/>
<circle cx="73.460938" cy="285.57422" r="3.4"/>
<circle cx="80.574219" cy="341.96875" r="3.4"/>
<circle cx="101.50781" cy="394.81641" r="3.4"/>
<circle cx="134.91406" cy="440.79688" r="3.4"/>
<circle cx="178.71094" cy="477.03125" r="3.4"/>
<circle cx="230.14453" cy="501.23047" r="3.4"/>
<circle cx="314.44531" cy="59.261719" r="3.4"/>
<circle cx="257.72266" cy="62.84375" r="3.4"/>
<circle cx="203.66016" cy="80.40625" r="3.4"/>
<circle cx="155.66797" cy="110.86328" r="3.4"/>
<circle cx="116.76172" cy="152.29688" r="3.4"/>
<circle cx="89.371094" cy="202.10547" r="3.4"/>
<circle cx="75.246094" cy="257.16406" r="3.4"/>
<circle cx="75.246094" cy="313.99609" r="3.4"/>
<circle cx="89.382812" cy="369.05078" r="3.4"/>
<circle cx="116.76563" cy="418.85938" r="3.4"/>
<circle cx="155.67188" cy="460.29688" r="3.4"/>
<circle cx="203.67188" cy="490.74609" r="3.4"/>
<circle cx="257.72266" cy="508.3125" r="3.4"/>
<circle cx="314.44922" cy="511.88281" r="3.4"/>
<circle cx="370.27734" cy="501.22656" r="3.4"/>
<circle cx="421.71484" cy="477.03125" r="3.4"/>
<circle cx="465.50391" cy="440.79297" r="3.4"/>
<circle cx="498.91406" cy="394.80859" r="3.4"/>
<circle cx="519.83984" cy="341.96094" r="3.4"/>
<circle cx="526.95703" cy="285.57422" r="3.4"/>
<circle cx="519.84375" cy="229.18359" r="3.4"/>
<circle cx="498.91016" cy="176.33594" r="3.4"/>
<circle cx="465.50391" cy="130.35547" r="3.4"/>
<circle cx="421.70703" cy="94.121094" r="3.4"/>
<circle cx="370.27344" cy="69.921875" r="3.4"/>
</g></svg>